<svg width="200" height="167" viewBox="0 0 200 167" fill="none" xmlns="http://www.w3.org/2000/svg">
<path d="M200 66.6667C200 78.9389 190.05 88.8889 177.778 88.8889H22.2222C9.95 88.8889 0 78.9389 0 66.6667V22.2222C0 9.95 9.95 0 22.2222 0H177.778C190.05 0 200 9.95 200 22.2222V66.6667Z" fill="#FFCC4D"/>
<path d="M33.3333 0H22.2222C9.95 0 0 9.95 0 22.2222V33.3333L33.3333 0ZM66.6667 0L0 66.6667C0 74.2222 3.78889 80.8778 9.55556 84.8889L94.4444 0H66.6667ZM38.8889 88.8889H66.6667L155.556 0H127.778L38.8889 88.8889ZM127.778 88.8889L199.4 17.2667C197.839 10.4333 193.144 4.82222 186.889 2L100 88.8889H127.778ZM200 66.6667V50L161.111 88.8889H177.778C190.05 88.8889 200 78.9389 200 66.6667Z" fill="#292F33"/>
<path d="M22.2222 88.8889H50V166.667H22.2222V88.8889ZM150 88.8889H177.778V166.667H150V88.8889Z" fill="#99AAB5"/>
</svg>
