<svg width="24" height="25" viewBox="0 0 24 25" fill="none" xmlns="http://www.w3.org/2000/svg">
<path d="M10.3333 8.62559C10.3333 10.826 8.6463 12.5256 6.66667 12.5256C4.68704 12.5256 3 10.826 3 8.62559C3 6.42514 4.68704 4.72559 6.66667 4.72559C8.6463 4.72559 10.3333 6.42514 10.3333 8.62559Z" stroke="#3A3A3A" stroke-width="2"/>
<path d="M21 8.62559C21 10.826 19.313 12.5256 17.3333 12.5256C15.3537 12.5256 13.6667 10.826 13.6667 8.62559C13.6667 6.42514 15.3537 4.72559 17.3333 4.72559C19.313 4.72559 21 6.42514 21 8.62559Z" stroke="#3A3A3A" stroke-width="2"/>
<path d="M6.00001 17.0256C6.00001 17.0256 7.33334 21.2256 12 21.2256C16.6667 21.2256 18 17.0256 18 17.0256" stroke="#3A3A3A" stroke-width="2"/>
</svg>
