<svg width="168" height="64" viewBox="0 0 168 64" fill="none" xmlns="http://www.w3.org/2000/svg">
<path d="M8.32324 13.6179V16.8372C9.73428 14.3503 13.3508 12.7697 16.4005 12.7697C20.4101 12.7697 23.2943 14.4083 24.7053 17.1766C26.9067 14.011 29.6212 12.7697 33.4074 12.7697C38.7164 12.7697 43.8019 15.8772 43.8019 23.5035V41.6938H35.497V25.4235C35.497 22.7669 34.086 20.6772 31.0322 20.6772C27.9826 20.6772 26.3439 22.9945 26.3439 25.4814V41.6938H17.8736V25.4235C17.8736 22.7669 16.4626 20.6772 13.355 20.6772C10.3591 20.6772 8.72048 22.9945 8.72048 25.5352V41.6938H0.134277V13.6138H8.32324V13.6179ZM52.446 0C55.2722 0 57.5315 2.25931 57.5315 5.02759C57.5315 7.79586 55.2722 10.0552 52.446 10.0552C49.7357 10.0552 47.4763 7.79586 47.4763 5.02759C47.4763 2.25931 49.7357 0 52.446 0ZM56.7991 13.6179V41.6979H48.2129V13.6179H56.7991ZM69.6764 13.6179V16.8372C71.0874 14.3503 74.7039 12.7697 77.7536 12.7697C81.7633 12.7697 84.6474 14.4083 86.0584 17.1766C88.2598 14.011 90.9743 12.7697 94.7605 12.7697C100.069 12.7697 105.155 15.8772 105.155 23.5035V41.6938H96.8502V25.4235C96.8502 22.7669 95.4391 20.6772 92.3853 20.6772C89.3357 20.6772 87.697 22.9945 87.697 25.4814V41.6938H79.2226V25.4235C79.2226 22.7669 77.8115 20.6772 74.7039 20.6772C71.7081 20.6772 70.0695 22.9945 70.0695 25.5352V41.6938H61.4833V13.6138H69.6764V13.6179ZM137.361 27.629C137.361 36.331 130.864 42.5421 122.447 42.5421C114.085 42.5421 107.534 36.3269 107.534 27.629C107.534 18.9269 114.089 12.7697 122.447 12.7697C130.86 12.7697 137.361 18.9269 137.361 27.629ZM128.77 27.629C128.77 22.8828 125.72 20.6814 122.443 20.6814C119.224 20.6814 116.116 22.8828 116.116 27.629C116.116 32.3172 119.224 34.6345 122.443 34.6345C125.72 34.6345 128.77 32.371 128.77 27.629ZM167.865 27.629C167.865 36.331 161.369 42.5421 152.952 42.5421C144.589 42.5421 138.039 36.3269 138.039 27.629C138.039 18.9269 144.594 12.7697 152.952 12.7697C161.369 12.7697 167.865 18.9269 167.865 27.629ZM159.279 27.629C159.279 22.8828 156.229 20.6814 152.952 20.6814C149.733 20.6814 146.625 22.8828 146.625 27.629C146.625 32.3172 149.733 34.6345 152.952 34.6345C156.229 34.6345 159.279 32.371 159.279 27.629Z" fill="#00C3A3"/>
<path d="M154.111 46.4152C153.577 54.96 146.476 61.7255 137.795 61.7255C129.283 61.7255 122.29 55.2165 121.516 46.9034" stroke="#00C3A3" stroke-width="3.47052"/>
</svg>
